<svg width="136" height="29" viewBox="0 0 136 29" fill="none" xmlns="http://www.w3.org/2000/svg">
<path d="M34.7248 13.0002C34.6162 13.0002 34.5258 12.964 34.4535 12.8916C34.3811 12.8072 34.345 12.7168 34.345 12.6203C34.345 12.56 34.351 12.5058 34.363 12.4576L38.6676 0.827894C38.7038 0.69526 38.7762 0.580712 38.8847 0.48425C38.9932 0.387788 39.1439 0.339557 39.3368 0.339557H41.6519C41.8449 0.339557 41.9956 0.387788 42.1041 0.48425C42.2126 0.580712 42.285 0.69526 42.3211 0.827894L46.6257 12.4576C46.6378 12.5058 46.6438 12.56 46.6438 12.6203C46.6438 12.7168 46.6076 12.8072 46.5353 12.8916C46.463 12.964 46.3725 13.0002 46.264 13.0002H44.383C44.2021 13.0002 44.0695 12.958 43.9851 12.8735C43.9007 12.7891 43.8464 12.7108 43.8223 12.6384L43.0446 10.6127H37.9442L37.1665 12.6384C37.1423 12.7108 37.0881 12.7891 37.0037 12.8735C36.9193 12.958 36.7866 13.0002 36.6058 13.0002H34.7248ZM38.6134 8.27956H42.3573L40.4944 3.07063L38.6134 8.27956Z" fill="#1760E8"/>
<path d="M48.8341 13.0002C48.7015 13.0002 48.593 12.958 48.5086 12.8735C48.4242 12.7891 48.382 12.6806 48.382 12.548V0.791722C48.382 0.659086 48.4242 0.550567 48.5086 0.466163C48.593 0.381759 48.7015 0.339557 48.8341 0.339557H50.48C50.6609 0.339557 50.7935 0.381759 50.8779 0.466163C50.9623 0.550567 51.0166 0.616884 51.0407 0.665115L55.8698 8.20721V0.791722C55.8698 0.659086 55.912 0.550567 55.9964 0.466163C56.0808 0.381759 56.1833 0.339557 56.3039 0.339557H58.1487C58.2813 0.339557 58.3899 0.381759 58.4743 0.466163C58.5587 0.550567 58.6009 0.659086 58.6009 0.791722V12.548C58.6009 12.6686 58.5587 12.7771 58.4743 12.8735C58.3899 12.958 58.2813 13.0002 58.1487 13.0002H56.4847C56.3039 13.0002 56.1712 12.958 56.0868 12.8735C56.0145 12.7771 55.9602 12.7108 55.9241 12.6746L51.113 5.36762V12.548C51.113 12.6806 51.0708 12.7891 50.9864 12.8735C50.902 12.958 50.7935 13.0002 50.6609 13.0002H48.8341Z" fill="#1760E8"/>
<path d="M60.715 13.0002C60.6065 13.0002 60.5161 12.964 60.4437 12.8916C60.3714 12.8072 60.3352 12.7168 60.3352 12.6203C60.3352 12.56 60.3412 12.5058 60.3533 12.4576L64.6579 0.827894C64.6941 0.69526 64.7664 0.580712 64.8749 0.48425C64.9835 0.387788 65.1342 0.339557 65.3271 0.339557H67.6422C67.8351 0.339557 67.9858 0.387788 68.0943 0.48425C68.2029 0.580712 68.2752 0.69526 68.3114 0.827894L72.616 12.4576C72.628 12.5058 72.6341 12.56 72.6341 12.6203C72.6341 12.7168 72.5979 12.8072 72.5256 12.8916C72.4532 12.964 72.3628 13.0002 72.2543 13.0002H70.3733C70.1924 13.0002 70.0598 12.958 69.9753 12.8735C69.8909 12.7891 69.8367 12.7108 69.8126 12.6384L69.0349 10.6127H63.9344L63.1567 12.6384C63.1326 12.7108 63.0783 12.7891 62.9939 12.8735C62.9095 12.958 62.7769 13.0002 62.596 13.0002H60.715ZM64.6036 8.27956H68.3476L66.4846 3.07063L64.6036 8.27956Z" fill="#1760E8"/>
<path d="M74.8244 13.0002C74.6917 13.0002 74.5832 12.958 74.4988 12.8735C74.4144 12.7891 74.3722 12.6806 74.3722 12.548V0.791722C74.3722 0.659086 74.4144 0.550567 74.4988 0.466163C74.5832 0.381759 74.6917 0.339557 74.8244 0.339557H76.832C76.9646 0.339557 77.0732 0.381759 77.1576 0.466163C77.242 0.550567 77.2842 0.659086 77.2842 0.791722V10.5766H82.891C83.0236 10.5766 83.1321 10.6188 83.2166 10.7032C83.301 10.7876 83.3432 10.8961 83.3432 11.0287V12.548C83.3432 12.6806 83.301 12.7891 83.2166 12.8735C83.1321 12.958 83.0236 13.0002 82.891 13.0002H74.8244Z" fill="#1760E8"/>
<path d="M87.0754 13.0002C86.9427 13.0002 86.8342 12.958 86.7498 12.8735C86.6654 12.7891 86.6232 12.6806 86.6232 12.548V8.56895L82.3909 0.918327C82.3789 0.882154 82.3668 0.85201 82.3548 0.827894C82.3427 0.791721 82.3367 0.755548 82.3367 0.719375C82.3367 0.622913 82.3728 0.538509 82.4452 0.466163C82.5296 0.381759 82.62 0.339557 82.7165 0.339557H84.6337C84.8025 0.339557 84.9351 0.381759 85.0316 0.466163C85.128 0.550567 85.1944 0.628942 85.2305 0.701289L88.0701 5.67509L90.9097 0.701289C90.9459 0.628942 91.0122 0.550567 91.1087 0.466163C91.2051 0.381759 91.3378 0.339557 91.5066 0.339557H93.4237C93.5202 0.339557 93.6046 0.381759 93.6769 0.466163C93.7614 0.538509 93.8036 0.622913 93.8036 0.719375C93.8036 0.755548 93.7975 0.791721 93.7855 0.827894C93.7734 0.85201 93.7614 0.882154 93.7493 0.918327L89.517 8.56895V12.548C89.517 12.6806 89.4748 12.7891 89.3904 12.8735C89.306 12.958 89.1975 13.0002 89.0649 13.0002H87.0754Z" fill="#1760E8"/>
<path d="M98.9017 13.0002C98.7691 13.0002 98.6606 12.958 98.5761 12.8735C98.4917 12.7891 98.4495 12.6806 98.4495 12.548V2.85359H95.1578C95.0372 2.85359 94.9347 2.81139 94.8503 2.72698C94.7659 2.64258 94.7237 2.54009 94.7237 2.41951V0.791722C94.7237 0.659086 94.7659 0.550567 94.8503 0.466163C94.9347 0.381759 95.0372 0.339557 95.1578 0.339557H104.635C104.768 0.339557 104.876 0.381759 104.961 0.466163C105.045 0.550567 105.087 0.659086 105.087 0.791722V2.41951C105.087 2.54009 105.045 2.64258 104.961 2.72698C104.876 2.81139 104.768 2.85359 104.635 2.85359H101.361V12.548C101.361 12.6806 101.319 12.7891 101.235 12.8735C101.15 12.958 101.042 13.0002 100.909 13.0002H98.9017Z" fill="#1760E8"/>
<path d="M107.46 13.0002C107.327 13.0002 107.219 12.958 107.134 12.8735C107.05 12.7891 107.008 12.6806 107.008 12.548V0.791722C107.008 0.659086 107.05 0.550567 107.134 0.466163C107.219 0.381759 107.327 0.339557 107.46 0.339557H109.504C109.636 0.339557 109.745 0.381759 109.829 0.466163C109.914 0.550567 109.956 0.659086 109.956 0.791722V12.548C109.956 12.6806 109.914 12.7891 109.829 12.8735C109.745 12.958 109.636 13.0002 109.504 13.0002H107.46Z" fill="#1760E8"/>
<path d="M117.834 13.181C116.7 13.181 115.735 12.9941 114.94 12.6203C114.156 12.2345 113.547 11.6798 113.113 10.9564C112.679 10.2209 112.438 9.32858 112.389 8.27956C112.377 7.78519 112.371 7.25465 112.371 6.68794C112.371 6.12123 112.377 5.57863 112.389 5.06015C112.438 4.02319 112.679 3.14297 113.113 2.41951C113.559 1.68399 114.18 1.12331 114.976 0.737462C115.772 0.351615 116.724 0.158691 117.834 0.158691C118.641 0.158691 119.377 0.261182 120.04 0.466163C120.703 0.671144 121.276 0.966558 121.758 1.3524C122.241 1.73825 122.614 2.19042 122.88 2.7089C123.145 3.22738 123.29 3.80615 123.314 4.44521C123.314 4.55373 123.272 4.64416 123.187 4.71651C123.115 4.78885 123.024 4.82503 122.916 4.82503H120.854C120.709 4.82503 120.595 4.78885 120.51 4.71651C120.426 4.64416 120.36 4.52358 120.311 4.35478C120.131 3.64337 119.829 3.15503 119.407 2.88976C118.985 2.62449 118.461 2.49186 117.834 2.49186C117.086 2.49186 116.495 2.69684 116.061 3.1068C115.627 3.51676 115.392 4.19803 115.356 5.15058C115.32 6.13932 115.32 7.15216 115.356 8.18913C115.392 9.14169 115.627 9.82295 116.061 10.2329C116.495 10.6429 117.086 10.8479 117.834 10.8479C118.461 10.8479 118.985 10.7152 119.407 10.4499C119.841 10.1726 120.143 9.68428 120.311 8.98494C120.36 8.80407 120.426 8.68349 120.51 8.62321C120.595 8.55086 120.709 8.51469 120.854 8.51469H122.916C123.024 8.51469 123.115 8.55086 123.187 8.62321C123.272 8.69555 123.314 8.78598 123.314 8.8945C123.29 9.53356 123.145 10.1123 122.88 10.6308C122.614 11.1493 122.241 11.6015 121.758 11.9873C121.276 12.3732 120.703 12.6686 120.04 12.8735C119.377 13.0785 118.641 13.181 117.834 13.181Z" fill="#1760E8"/>
<path d="M130.085 13.181C128.927 13.181 127.956 13.0122 127.173 12.6746C126.401 12.337 125.816 11.8969 125.418 11.3543C125.02 10.8117 124.809 10.2329 124.785 9.61797C124.785 9.52151 124.821 9.4371 124.894 9.36475C124.966 9.28035 125.057 9.23815 125.165 9.23815H127.1C127.257 9.23815 127.378 9.27432 127.462 9.34667C127.546 9.40696 127.625 9.48533 127.697 9.58179C127.782 9.78677 127.914 9.98573 128.095 10.1786C128.288 10.3716 128.547 10.5344 128.873 10.667C129.198 10.7876 129.602 10.8479 130.085 10.8479C130.868 10.8479 131.453 10.7212 131.839 10.468C132.237 10.2148 132.436 9.87118 132.436 9.4371C132.436 9.1236 132.327 8.87039 132.11 8.67747C131.905 8.48454 131.574 8.3097 131.116 8.15295C130.669 7.9962 130.073 7.8274 129.325 7.64653C128.421 7.45361 127.649 7.20642 127.01 6.90498C126.383 6.59148 125.907 6.19358 125.581 5.71127C125.268 5.2169 125.111 4.60799 125.111 3.88452C125.111 3.16106 125.31 2.522 125.708 1.96735C126.106 1.40064 126.666 0.96053 127.39 0.647029C128.113 0.321471 128.975 0.158691 129.976 0.158691C130.784 0.158691 131.495 0.267211 132.11 0.48425C132.737 0.701289 133.256 0.984645 133.666 1.33432C134.088 1.68399 134.407 2.05778 134.624 2.45569C134.841 2.85359 134.956 3.23944 134.968 3.61323C134.968 3.70969 134.932 3.80012 134.859 3.88452C134.787 3.95687 134.697 3.99304 134.588 3.99304H132.562C132.442 3.99304 132.333 3.96893 132.237 3.9207C132.14 3.87247 132.062 3.78806 132.002 3.66749C131.929 3.35398 131.712 3.08269 131.351 2.85359C131.001 2.61244 130.543 2.49186 129.976 2.49186C129.385 2.49186 128.915 2.60038 128.565 2.81742C128.228 3.03446 128.059 3.36604 128.059 3.81218C128.059 4.10156 128.143 4.34875 128.312 4.55373C128.493 4.74665 128.788 4.92149 129.198 5.07824C129.62 5.22293 130.175 5.38571 130.862 5.56658C131.923 5.78361 132.786 6.04285 133.449 6.3443C134.112 6.64574 134.6 7.03762 134.914 7.51992C135.227 7.99018 135.384 8.58703 135.384 9.31049C135.384 10.1184 135.155 10.8117 134.697 11.3905C134.251 11.9692 133.63 12.4154 132.834 12.7289C132.05 13.0303 131.134 13.181 130.085 13.181Z" fill="#1760E8"/>
<path d="M37.9809 28.8218C37.4146 28.8218 36.9292 28.751 36.5247 28.6094C36.1202 28.4678 35.7915 28.2959 35.5387 28.0936C35.2858 27.8914 35.0937 27.6891 34.9622 27.4869C34.8409 27.2846 34.7751 27.1228 34.765 27.0014C34.7549 26.8902 34.7903 26.8042 34.8712 26.7436C34.9521 26.6829 35.033 26.6525 35.1139 26.6525H35.7814C35.8421 26.6525 35.8876 26.6627 35.9179 26.6829C35.9584 26.693 36.0089 26.7335 36.0696 26.8042C36.2011 26.9458 36.3477 27.0874 36.5095 27.229C36.6713 27.3706 36.8685 27.4869 37.1011 27.5779C37.3438 27.6689 37.6422 27.7144 37.9961 27.7144C38.5119 27.7144 38.9366 27.6183 39.2703 27.4262C39.6041 27.2239 39.7709 26.9307 39.7709 26.5464C39.7709 26.2935 39.7001 26.0913 39.5586 25.9396C39.4271 25.7879 39.1844 25.6514 38.8304 25.53C38.4866 25.4087 38.0113 25.2822 37.4045 25.1508C36.7977 25.0092 36.3174 24.8373 35.9634 24.635C35.6095 24.4226 35.3566 24.1749 35.2049 23.8917C35.0532 23.5984 34.9774 23.2698 34.9774 22.9057C34.9774 22.5315 35.0886 22.1725 35.3111 21.8287C35.5336 21.4747 35.8572 21.1865 36.282 20.964C36.7168 20.7415 37.2579 20.6303 37.9051 20.6303C38.431 20.6303 38.881 20.696 39.2552 20.8275C39.6293 20.959 39.9378 21.1258 40.1805 21.3281C40.4232 21.5202 40.6052 21.7124 40.7266 21.9045C40.8479 22.0967 40.9137 22.2585 40.9238 22.39C40.9339 22.4911 40.9036 22.577 40.8328 22.6478C40.762 22.7085 40.6811 22.7388 40.5901 22.7388H39.953C39.8822 22.7388 39.8215 22.7237 39.7709 22.6933C39.7305 22.663 39.69 22.6276 39.6496 22.5872C39.5484 22.4557 39.4271 22.3242 39.2855 22.1928C39.154 22.0613 38.9771 21.9551 38.7546 21.8742C38.5422 21.7832 38.259 21.7377 37.9051 21.7377C37.3994 21.7377 37.0202 21.8439 36.7674 22.0562C36.5146 22.2686 36.3882 22.5366 36.3882 22.8602C36.3882 23.0524 36.4438 23.2243 36.555 23.376C36.6663 23.5277 36.8786 23.6642 37.1921 23.7855C37.5056 23.9069 37.9708 24.0384 38.5877 24.1799C39.2552 24.3114 39.781 24.4884 40.1653 24.7109C40.5496 24.9334 40.8227 25.1912 40.9845 25.4845C41.1463 25.7778 41.2272 26.1166 41.2272 26.5009C41.2272 26.9256 41.1008 27.3149 40.8479 27.6689C40.6052 28.0229 40.2412 28.306 39.7558 28.5184C39.2804 28.7206 38.6888 28.8218 37.9809 28.8218Z" fill="#1E1E1E" fill-opacity="0.7"/>
<path d="M46.2144 28.8218C45.4458 28.8218 44.8036 28.6751 44.2878 28.3819C43.7721 28.0886 43.3777 27.6841 43.1046 27.1683C42.8316 26.6424 42.6799 26.0458 42.6496 25.3783C42.6394 25.2064 42.6344 24.989 42.6344 24.726C42.6344 24.453 42.6394 24.2356 42.6496 24.0738C42.6799 23.3962 42.8316 22.7995 43.1046 22.2838C43.3878 21.768 43.7873 21.3635 44.303 21.0702C44.8188 20.7769 45.4559 20.6303 46.2144 20.6303C46.9728 20.6303 47.6099 20.7769 48.1257 21.0702C48.6415 21.3635 49.0359 21.768 49.3089 22.2838C49.5921 22.7995 49.7488 23.3962 49.7792 24.0738C49.7893 24.2356 49.7943 24.453 49.7943 24.726C49.7943 24.989 49.7893 25.2064 49.7792 25.3783C49.7488 26.0458 49.5971 26.6424 49.3241 27.1683C49.051 27.6841 48.6566 28.0886 48.1409 28.3819C47.6251 28.6751 46.9829 28.8218 46.2144 28.8218ZM46.2144 27.6537C46.8414 27.6537 47.3419 27.4565 47.7161 27.0621C48.0903 26.6576 48.2926 26.0711 48.3229 25.3025C48.333 25.1508 48.3381 24.9586 48.3381 24.726C48.3381 24.4934 48.333 24.3013 48.3229 24.1496C48.2926 23.381 48.0903 22.7995 47.7161 22.4051C47.3419 22.0006 46.8414 21.7983 46.2144 21.7983C45.5874 21.7983 45.0817 22.0006 44.6974 22.4051C44.3232 22.7995 44.126 23.381 44.1058 24.1496C44.0957 24.3013 44.0906 24.4934 44.0906 24.726C44.0906 24.9586 44.0957 25.1508 44.1058 25.3025C44.126 26.0711 44.3232 26.6576 44.6974 27.0621C45.0817 27.4565 45.5874 27.6537 46.2144 27.6537Z" fill="#1E1E1E" fill-opacity="0.7"/>
<path d="M54.8794 28.8218C54.1614 28.8218 53.5394 28.6852 53.0136 28.4122C52.4978 28.129 52.0983 27.7296 51.8152 27.2138C51.532 26.6879 51.3803 26.0609 51.3601 25.3328C51.35 25.1811 51.3449 24.9789 51.3449 24.726C51.3449 24.4732 51.35 24.271 51.3601 24.1193C51.3803 23.3911 51.532 22.7692 51.8152 22.2534C52.0983 21.7276 52.4978 21.3281 53.0136 21.055C53.5394 20.7719 54.1614 20.6303 54.8794 20.6303C55.4659 20.6303 55.9665 20.7112 56.3812 20.873C56.8059 21.0348 57.1548 21.2421 57.4278 21.495C57.7009 21.7478 57.9032 22.0208 58.0346 22.3141C58.1762 22.6074 58.252 22.8855 58.2622 23.1484C58.2723 23.2496 58.2419 23.3305 58.1711 23.3911C58.1004 23.4518 58.0144 23.4821 57.9133 23.4821H57.1851C57.084 23.4821 57.0082 23.4619 56.9576 23.4215C56.907 23.3709 56.8565 23.29 56.8059 23.1788C56.6239 22.6832 56.3761 22.3343 56.0626 22.1321C55.7491 21.9298 55.3598 21.8287 54.8946 21.8287C54.2878 21.8287 53.7923 22.0158 53.408 22.39C53.0338 22.7641 52.8315 23.3658 52.8012 24.1951C52.7911 24.5592 52.7911 24.9131 52.8012 25.257C52.8315 26.0963 53.0338 26.7031 53.408 27.0773C53.7923 27.4414 54.2878 27.6234 54.8946 27.6234C55.3598 27.6234 55.7491 27.5223 56.0626 27.32C56.3761 27.1177 56.6239 26.7688 56.8059 26.2733C56.8565 26.1621 56.907 26.0862 56.9576 26.0458C57.0082 25.9952 57.084 25.9699 57.1851 25.9699H57.9133C58.0144 25.9699 58.1004 26.0003 58.1711 26.0609C58.2419 26.1216 58.2723 26.2025 58.2622 26.3037C58.252 26.516 58.2065 26.7335 58.1256 26.9559C58.0447 27.1784 57.9133 27.406 57.7312 27.6386C57.5593 27.861 57.3419 28.0633 57.0789 28.2453C56.816 28.4173 56.4975 28.5588 56.1233 28.6701C55.7592 28.7712 55.3446 28.8218 54.8794 28.8218Z" fill="#1E1E1E" fill-opacity="0.7"/>
<path d="M60.4125 28.6701C60.3114 28.6701 60.2254 28.6397 60.1547 28.5791C60.094 28.5083 60.0636 28.4223 60.0636 28.3212V21.1309C60.0636 21.0298 60.094 20.9489 60.1547 20.8882C60.2254 20.8174 60.3114 20.782 60.4125 20.782H61.1407C61.2418 20.782 61.3227 20.8174 61.3834 20.8882C61.4441 20.9489 61.4744 21.0298 61.4744 21.1309V28.3212C61.4744 28.4223 61.4441 28.5083 61.3834 28.5791C61.3227 28.6397 61.2418 28.6701 61.1407 28.6701H60.4125ZM60.2912 19.3106C60.1901 19.3106 60.1041 19.2802 60.0333 19.2196C59.9726 19.1488 59.9423 19.0628 59.9423 18.9617V18.1425C59.9423 18.0414 59.9726 17.9605 60.0333 17.8998C60.1041 17.829 60.1901 17.7936 60.2912 17.7936H61.2469C61.348 17.7936 61.4289 17.829 61.4896 17.8998C61.5604 17.9605 61.5957 18.0414 61.5957 18.1425V18.9617C61.5957 19.0628 61.5604 19.1488 61.4896 19.2196C61.4289 19.2802 61.348 19.3106 61.2469 19.3106H60.2912Z" fill="#1E1E1E" fill-opacity="0.7"/>
<path d="M65.937 28.8218C65.4314 28.8218 64.9713 28.7206 64.5566 28.5184C64.142 28.3161 63.8083 28.0431 63.5554 27.6992C63.3026 27.3554 63.1762 26.9661 63.1762 26.5312C63.1762 25.8334 63.4594 25.2772 64.0257 24.8626C64.592 24.4479 65.3303 24.1749 66.2404 24.0434L68.5007 23.7249V23.2849C68.5007 22.7995 68.3591 22.4203 68.0759 22.1472C67.8029 21.8742 67.3528 21.7377 66.7258 21.7377C66.2708 21.7377 65.9016 21.8287 65.6185 22.0107C65.3454 22.1928 65.1533 22.4253 65.042 22.7085C64.9814 22.8602 64.8752 22.9361 64.7235 22.9361H64.0409C63.9296 22.9361 63.8437 22.9057 63.783 22.845C63.7324 22.7742 63.7071 22.6933 63.7071 22.6023C63.7071 22.4506 63.7628 22.2635 63.874 22.0411C63.9954 21.8186 64.1774 21.6011 64.4201 21.3888C64.6628 21.1764 64.9713 20.9994 65.3454 20.8578C65.7297 20.7062 66.1949 20.6303 66.741 20.6303C67.3478 20.6303 67.8585 20.7112 68.2731 20.873C68.6878 21.0247 69.0114 21.232 69.244 21.495C69.4867 21.7579 69.6586 22.0562 69.7597 22.39C69.871 22.7237 69.9266 23.0625 69.9266 23.4063V28.3212C69.9266 28.4223 69.8912 28.5083 69.8204 28.5791C69.7597 28.6397 69.6788 28.6701 69.5777 28.6701H68.8799C68.7687 28.6701 68.6827 28.6397 68.622 28.5791C68.5613 28.5083 68.531 28.4223 68.531 28.3212V27.6689C68.3995 27.8509 68.2225 28.033 68.0001 28.215C67.7776 28.3869 67.4995 28.5336 67.1658 28.6549C66.832 28.7661 66.4225 28.8218 65.937 28.8218ZM66.2556 27.6841C66.6702 27.6841 67.0495 27.5981 67.3933 27.4262C67.7371 27.2442 68.0051 26.966 68.1973 26.5919C68.3995 26.2177 68.5007 25.7474 68.5007 25.1811V24.7564L66.741 25.0143C66.023 25.1154 65.482 25.2873 65.1179 25.53C64.7538 25.7626 64.5718 26.0609 64.5718 26.425C64.5718 26.7082 64.6527 26.9458 64.8145 27.138C64.9864 27.32 65.1988 27.4565 65.4516 27.5475C65.7146 27.6386 65.9825 27.6841 66.2556 27.6841Z" fill="#1E1E1E" fill-opacity="0.7"/>
<path d="M72.4714 28.6701C72.3702 28.6701 72.2843 28.6397 72.2135 28.5791C72.1528 28.5083 72.1225 28.4223 72.1225 28.3212V18.2487C72.1225 18.1476 72.1528 18.0667 72.2135 18.006C72.2843 17.9352 72.3702 17.8998 72.4714 17.8998H73.1843C73.2956 17.8998 73.3815 17.9352 73.4422 18.006C73.5029 18.0667 73.5332 18.1476 73.5332 18.2487V28.3212C73.5332 28.4223 73.5029 28.5083 73.4422 28.5791C73.3815 28.6397 73.2956 28.6701 73.1843 28.6701H72.4714Z" fill="#1E1E1E" fill-opacity="0.7"/>
<path d="M82.7453 28.8218C82.0475 28.8218 81.4357 28.6954 80.9098 28.4425C80.3839 28.1897 79.9744 27.8408 79.6811 27.3958C79.3878 26.9408 79.2412 26.42 79.2412 25.8334C79.2412 25.3682 79.3372 24.9637 79.5294 24.6199C79.7317 24.2659 79.9946 23.9524 80.3182 23.6793C80.6418 23.4063 80.9958 23.1585 81.3801 22.9361C80.9048 22.4304 80.566 21.9854 80.3637 21.6011C80.1716 21.2169 80.0755 20.8174 80.0755 20.4028C80.0755 19.9477 80.1918 19.5331 80.4244 19.1589C80.657 18.7847 80.9856 18.4813 81.4104 18.2487C81.8351 18.0161 82.3357 17.8998 82.9122 17.8998C83.4684 17.8998 83.9538 18.0111 84.3684 18.2335C84.7932 18.456 85.1218 18.7544 85.3544 19.1285C85.587 19.5027 85.7033 19.9224 85.7033 20.3876C85.7033 20.8326 85.5971 21.2219 85.3848 21.5556C85.1724 21.8894 84.8892 22.1877 84.5353 22.4506C84.1914 22.7136 83.8122 22.9613 83.3976 23.1939L85.9764 25.7272C86.1382 25.4441 86.2899 25.1154 86.4315 24.7412C86.5832 24.367 86.6995 23.9271 86.7804 23.4215C86.8107 23.2192 86.9219 23.1181 87.1141 23.1181H87.7815C87.8726 23.1181 87.9484 23.1484 88.0091 23.2091C88.0698 23.2698 88.1001 23.3456 88.1001 23.4366C88.09 23.6591 88.0546 23.8968 87.9939 24.1496C87.9433 24.4024 87.8624 24.6704 87.7512 24.9536C87.6501 25.2367 87.5237 25.5199 87.372 25.8031C87.2304 26.0761 87.0635 26.3492 86.8714 26.6222L88.4186 28.1543C88.5097 28.2352 88.5552 28.3111 88.5552 28.3819C88.5552 28.4729 88.5299 28.5437 88.4793 28.5942C88.4288 28.6448 88.3529 28.6701 88.2518 28.6701H87.4023C87.3012 28.6701 87.2152 28.6549 87.1444 28.6246C87.0837 28.5942 87.0332 28.5588 86.9927 28.5184L85.9915 27.5324C85.5971 27.9167 85.132 28.2302 84.596 28.4729C84.06 28.7055 83.4431 28.8218 82.7453 28.8218ZM82.7453 27.6082C83.1498 27.6082 83.5543 27.5273 83.9589 27.3655C84.3634 27.1936 84.7375 26.9408 85.0814 26.607L82.2447 23.831C81.8099 24.0738 81.4306 24.3519 81.107 24.6654C80.7935 24.9687 80.6368 25.348 80.6368 25.8031C80.6368 26.1874 80.7328 26.516 80.925 26.7891C81.1272 27.052 81.3902 27.2543 81.7138 27.3958C82.0374 27.5374 82.3812 27.6082 82.7453 27.6082ZM82.5633 22.3141C82.8869 22.1321 83.1852 21.95 83.4583 21.768C83.7414 21.586 83.9639 21.3837 84.1257 21.1612C84.2976 20.9387 84.3836 20.6859 84.3836 20.4028C84.3836 19.9982 84.242 19.6746 83.9589 19.4319C83.6757 19.1892 83.3268 19.0679 82.9122 19.0679C82.5178 19.0679 82.1689 19.1892 81.8655 19.4319C81.5722 19.6645 81.4256 19.9932 81.4256 20.4179C81.4256 20.5899 81.4559 20.7668 81.5166 20.9489C81.5874 21.1208 81.7037 21.3129 81.8655 21.5253C82.0273 21.7377 82.2599 22.0006 82.5633 22.3141Z" fill="#1E1E1E" fill-opacity="0.7"/>
<path d="M94.114 28.6701C94.0129 28.6701 93.9269 28.6397 93.8562 28.5791C93.7955 28.5083 93.7651 28.4223 93.7651 28.3212V21.1309C93.7651 21.0298 93.7955 20.9489 93.8562 20.8882C93.9269 20.8174 94.0129 20.782 94.114 20.782H94.7967C94.8978 20.782 94.9787 20.8174 95.0394 20.8882C95.1102 20.9489 95.1456 21.0298 95.1456 21.1309V21.6618C95.3782 21.3483 95.6714 21.1006 96.0254 20.9185C96.3793 20.7264 96.8041 20.6303 97.2996 20.6303C98.4424 20.6202 99.2514 21.0854 99.7267 22.0259C99.9593 21.6011 100.298 21.2624 100.743 21.0095C101.188 20.7567 101.694 20.6303 102.26 20.6303C102.786 20.6303 103.261 20.7517 103.686 20.9944C104.121 21.2371 104.46 21.6062 104.702 22.1017C104.955 22.5872 105.081 23.199 105.081 23.9372V28.3212C105.081 28.4223 105.046 28.5083 104.975 28.5791C104.915 28.6397 104.834 28.6701 104.733 28.6701H104.02C103.919 28.6701 103.833 28.6397 103.762 28.5791C103.701 28.5083 103.671 28.4223 103.671 28.3212V24.0738C103.671 23.5074 103.59 23.0625 103.428 22.7388C103.266 22.4152 103.049 22.1877 102.776 22.0562C102.503 21.9248 102.204 21.859 101.881 21.859C101.618 21.859 101.35 21.9248 101.077 22.0562C100.804 22.1877 100.576 22.4152 100.394 22.7388C100.222 23.0625 100.136 23.5074 100.136 24.0738V28.3212C100.136 28.4223 100.101 28.5083 100.03 28.5791C99.9694 28.6397 99.8885 28.6701 99.7874 28.6701H99.0744C98.9733 28.6701 98.8873 28.6397 98.8165 28.5791C98.7559 28.5083 98.7255 28.4223 98.7255 28.3212V24.0738C98.7255 23.5074 98.6396 23.0625 98.4677 22.7388C98.2957 22.4152 98.0732 22.1877 97.8002 22.0562C97.5272 21.9248 97.2389 21.859 96.9355 21.859C96.6726 21.859 96.4046 21.9248 96.1316 22.0562C95.8585 22.1877 95.631 22.4152 95.4489 22.7388C95.277 23.0625 95.1911 23.5024 95.1911 24.0586V28.3212C95.1911 28.4223 95.1557 28.5083 95.0849 28.5791C95.0242 28.6397 94.9433 28.6701 94.8422 28.6701H94.114Z" fill="#1E1E1E" fill-opacity="0.7"/>
<path d="M110.386 28.8218C109.344 28.8218 108.515 28.5032 107.898 27.8661C107.281 27.2189 106.942 26.339 106.882 25.2266C106.872 25.0952 106.867 24.9283 106.867 24.726C106.867 24.5137 106.872 24.3417 106.882 24.2103C106.922 23.4923 107.089 22.8653 107.382 22.3293C107.676 21.7832 108.075 21.3635 108.581 21.0702C109.096 20.7769 109.698 20.6303 110.386 20.6303C111.154 20.6303 111.797 20.7921 112.312 21.1157C112.838 21.4393 113.238 21.8995 113.511 22.4961C113.784 23.0928 113.92 23.7906 113.92 24.5895V24.8474C113.92 24.9586 113.885 25.0446 113.814 25.1053C113.753 25.1659 113.673 25.1963 113.571 25.1963H108.323C108.323 25.2064 108.323 25.2266 108.323 25.257C108.323 25.2873 108.323 25.3126 108.323 25.3328C108.343 25.7474 108.434 26.1368 108.596 26.5009C108.758 26.8548 108.99 27.143 109.294 27.3655C109.597 27.588 109.961 27.6992 110.386 27.6992C110.75 27.6992 111.053 27.6436 111.296 27.5324C111.539 27.4211 111.736 27.2998 111.888 27.1683C112.039 27.0267 112.14 26.9205 112.191 26.8498C112.282 26.7183 112.353 26.6424 112.403 26.6222C112.454 26.5919 112.535 26.5767 112.646 26.5767H113.374C113.475 26.5767 113.556 26.607 113.617 26.6677C113.688 26.7183 113.718 26.7941 113.708 26.8953C113.698 27.047 113.617 27.234 113.465 27.4565C113.313 27.6689 113.096 27.8813 112.813 28.0936C112.53 28.306 112.186 28.483 111.781 28.6246C111.377 28.756 110.912 28.8218 110.386 28.8218ZM108.323 24.1496H112.479V24.1041C112.479 23.649 112.393 23.2445 112.221 22.8905C112.059 22.5366 111.822 22.2585 111.508 22.0562C111.195 21.8439 110.821 21.7377 110.386 21.7377C109.951 21.7377 109.577 21.8439 109.263 22.0562C108.96 22.2585 108.727 22.5366 108.565 22.8905C108.404 23.2445 108.323 23.649 108.323 24.1041V24.1496Z" fill="#1E1E1E" fill-opacity="0.7"/>
<path d="M118.616 28.8218C118.06 28.8218 117.58 28.7257 117.175 28.5336C116.771 28.3313 116.437 28.0633 116.174 27.7296C115.921 27.3857 115.729 26.9964 115.598 26.5615C115.476 26.1267 115.405 25.6665 115.385 25.1811C115.375 25.0193 115.37 24.8676 115.37 24.726C115.37 24.5845 115.375 24.4328 115.385 24.271C115.405 23.7956 115.476 23.3406 115.598 22.9057C115.729 22.4709 115.921 22.0815 116.174 21.7377C116.437 21.3938 116.771 21.1258 117.175 20.9337C117.58 20.7314 118.06 20.6303 118.616 20.6303C119.213 20.6303 119.708 20.7365 120.103 20.9489C120.497 21.1612 120.821 21.4242 121.074 21.7377V18.2487C121.074 18.1476 121.104 18.0667 121.165 18.006C121.236 17.9352 121.321 17.8998 121.423 17.8998H122.151C122.252 17.8998 122.333 17.9352 122.393 18.006C122.464 18.0667 122.5 18.1476 122.5 18.2487V28.3212C122.5 28.4223 122.464 28.5083 122.393 28.5791C122.333 28.6397 122.252 28.6701 122.151 28.6701H121.468C121.357 28.6701 121.271 28.6397 121.21 28.5791C121.15 28.5083 121.119 28.4223 121.119 28.3212V27.6841C120.866 28.0077 120.538 28.2807 120.133 28.5032C119.729 28.7156 119.223 28.8218 118.616 28.8218ZM118.935 27.5931C119.44 27.5931 119.845 27.4768 120.148 27.2442C120.452 27.0116 120.679 26.7183 120.831 26.3643C120.983 26.0003 121.064 25.6311 121.074 25.257C121.084 25.0952 121.089 24.903 121.089 24.6805C121.089 24.4479 121.084 24.2507 121.074 24.0889C121.064 23.735 120.978 23.3861 120.816 23.0422C120.664 22.6984 120.432 22.4152 120.118 22.1928C119.815 21.9703 119.42 21.859 118.935 21.859C118.419 21.859 118.009 21.9753 117.706 22.2079C117.403 22.4304 117.185 22.7287 117.054 23.1029C116.922 23.467 116.846 23.8614 116.826 24.2861C116.816 24.5794 116.816 24.8727 116.826 25.1659C116.846 25.5907 116.922 25.9902 117.054 26.3643C117.185 26.7284 117.403 27.0267 117.706 27.2593C118.009 27.4818 118.419 27.5931 118.935 27.5931Z" fill="#1E1E1E" fill-opacity="0.7"/>
<path d="M125.105 28.6701C125.003 28.6701 124.918 28.6397 124.847 28.5791C124.786 28.5083 124.756 28.4223 124.756 28.3212V21.1309C124.756 21.0298 124.786 20.9489 124.847 20.8882C124.918 20.8174 125.003 20.782 125.105 20.782H125.833C125.934 20.782 126.015 20.8174 126.075 20.8882C126.136 20.9489 126.166 21.0298 126.166 21.1309V28.3212C126.166 28.4223 126.136 28.5083 126.075 28.5791C126.015 28.6397 125.934 28.6701 125.833 28.6701H125.105ZM124.983 19.3106C124.882 19.3106 124.796 19.2802 124.725 19.2196C124.665 19.1488 124.634 19.0628 124.634 18.9617V18.1425C124.634 18.0414 124.665 17.9605 124.725 17.8998C124.796 17.829 124.882 17.7936 124.983 17.7936H125.939C126.04 17.7936 126.121 17.829 126.182 17.8998C126.252 17.9605 126.288 18.0414 126.288 18.1425V18.9617C126.288 19.0628 126.252 19.1488 126.182 19.2196C126.121 19.2802 126.04 19.3106 125.939 19.3106H124.983Z" fill="#1E1E1E" fill-opacity="0.7"/>
<path d="M130.629 28.8218C130.123 28.8218 129.663 28.7206 129.249 28.5184C128.834 28.3161 128.5 28.0431 128.248 27.6992C127.995 27.3554 127.868 26.9661 127.868 26.5312C127.868 25.8334 128.151 25.2772 128.718 24.8626C129.284 24.4479 130.022 24.1749 130.932 24.0434L133.193 23.7249V23.2849C133.193 22.7995 133.051 22.4203 132.768 22.1472C132.495 21.8742 132.045 21.7377 131.418 21.7377C130.963 21.7377 130.594 21.8287 130.311 22.0107C130.037 22.1928 129.845 22.4253 129.734 22.7085C129.673 22.8602 129.567 22.9361 129.416 22.9361H128.733C128.622 22.9361 128.536 22.9057 128.475 22.845C128.424 22.7742 128.399 22.6933 128.399 22.6023C128.399 22.4506 128.455 22.2635 128.566 22.0411C128.687 21.8186 128.869 21.6011 129.112 21.3888C129.355 21.1764 129.663 20.9994 130.038 20.8578C130.422 20.7062 130.887 20.6303 131.433 20.6303C132.04 20.6303 132.551 20.7112 132.965 20.873C133.38 21.0247 133.703 21.232 133.936 21.495C134.179 21.7579 134.351 22.0562 134.452 22.39C134.563 22.7237 134.619 23.0625 134.619 23.4063V28.3212C134.619 28.4223 134.583 28.5083 134.512 28.5791C134.452 28.6397 134.371 28.6701 134.27 28.6701H133.572C133.461 28.6701 133.375 28.6397 133.314 28.5791C133.253 28.5083 133.223 28.4223 133.223 28.3212V27.6689C133.092 27.8509 132.915 28.033 132.692 28.215C132.47 28.3869 132.192 28.5336 131.858 28.6549C131.524 28.7661 131.115 28.8218 130.629 28.8218ZM130.948 27.6841C131.362 27.6841 131.742 27.5981 132.085 27.4262C132.429 27.2442 132.697 26.966 132.889 26.5919C133.092 26.2177 133.193 25.7474 133.193 25.1811V24.7564L131.433 25.0143C130.715 25.1154 130.174 25.2873 129.81 25.53C129.446 25.7626 129.264 26.0609 129.264 26.425C129.264 26.7082 129.345 26.9458 129.507 27.138C129.678 27.32 129.891 27.4565 130.144 27.5475C130.407 27.6386 130.675 27.6841 130.948 27.6841Z" fill="#1E1E1E" fill-opacity="0.7"/>
<path d="M0 3.35027C0 1.85763 1.21002 0.647616 2.70265 0.647616C4.19529 0.647616 5.40531 1.85763 5.40531 3.35027V25.8451C5.40531 27.3377 4.19529 28.5477 2.70265 28.5477C1.21002 28.5477 0 27.3377 0 25.8451V3.35027Z" fill="#1760E8"/>
<path d="M9.12146 9.4655C9.12146 7.97287 10.3315 6.76285 11.8241 6.76285C13.3168 6.76285 14.5268 7.97287 14.5268 9.4655V25.8452C14.5268 27.3379 13.3168 28.5479 11.8241 28.5479C10.3315 28.5479 9.12146 27.3379 9.12146 25.8452V9.4655Z" fill="#1760E8"/>
<path d="M18.2429 17.4909C18.2429 15.9983 19.4529 14.7882 20.9456 14.7882C22.4382 14.7882 23.6482 15.9983 23.6482 17.4909V25.8446C23.6482 27.3372 22.4382 28.5472 20.9456 28.5472C19.4529 28.5472 18.2429 27.3372 18.2429 25.8445V17.4909Z" fill="#1760E8"/>
</svg>
