<svg width="16" height="16" viewBox="0 0 16 16" fill="none" xmlns="http://www.w3.org/2000/svg">
<path d="M12.1003 6.09761L11.9003 12.1511C11.8832 12.6696 11.6648 13.161 11.2914 13.521C10.918 13.8811 10.419 14.0815 9.90026 14.0796H6.10026C5.58187 14.0815 5.08313 13.8814 4.70978 13.5217C4.33643 13.1621 4.1178 12.6712 4.10026 12.1531L3.90026 6.09761C3.89588 5.96501 3.94436 5.83609 4.03504 5.73923C4.12571 5.64237 4.25115 5.58549 4.38376 5.58111C4.51637 5.57674 4.64528 5.62522 4.74214 5.71589C4.83901 5.80657 4.89588 5.93201 4.90026 6.06461L5.10026 12.1196C5.11022 12.3781 5.21995 12.6227 5.40642 12.802C5.59289 12.9812 5.84158 13.0813 6.10026 13.0811H9.90026C10.1593 13.0813 10.4082 12.981 10.5948 12.8012C10.7813 12.6215 10.8908 12.3765 10.9003 12.1176L11.1003 6.06461C11.1046 5.93201 11.1615 5.80657 11.2584 5.71589C11.3552 5.62522 11.4841 5.57674 11.6168 5.58111C11.7494 5.58549 11.8748 5.64237 11.9655 5.73923C12.0562 5.83609 12.1046 5.96501 12.1003 6.09761ZM12.7618 4.08311C12.7618 4.21572 12.7091 4.3429 12.6153 4.43667C12.5215 4.53044 12.3944 4.58311 12.2618 4.58311H3.73926C3.60665 4.58311 3.47947 4.53044 3.3857 4.43667C3.29194 4.3429 3.23926 4.21572 3.23926 4.08311C3.23926 3.95051 3.29194 3.82333 3.3857 3.72956C3.47947 3.63579 3.60665 3.58311 3.73926 3.58311H5.28926C5.44768 3.58354 5.6006 3.52501 5.71825 3.41891C5.8359 3.31281 5.90987 3.16674 5.92576 3.00911C5.96265 2.63936 6.13589 2.29658 6.41171 2.04757C6.68752 1.79856 7.04617 1.66115 7.41776 1.66211H8.58276C8.95435 1.66115 9.31299 1.79856 9.58881 2.04757C9.86463 2.29658 10.0379 2.63936 10.0748 3.00911C10.0906 3.16674 10.1646 3.31281 10.2823 3.41891C10.3999 3.52501 10.5528 3.58354 10.7113 3.58311H12.2613C12.3939 3.58311 12.521 3.63579 12.6148 3.72956C12.7086 3.82333 12.7613 3.95051 12.7613 4.08311H12.7618ZM6.79376 3.58311H9.20776C9.14205 3.43299 9.09908 3.27391 9.08026 3.11111C9.06787 2.98787 9.01018 2.87361 8.91836 2.79047C8.82654 2.70733 8.70712 2.66124 8.58326 2.66111H7.41826C7.29439 2.66124 7.17498 2.70733 7.08316 2.79047C6.99134 2.87361 6.93364 2.98787 6.92126 3.11111C6.90227 3.27393 6.85963 3.43301 6.79376 3.58311ZM7.29726 11.1586V6.90111C7.29726 6.76851 7.24458 6.64133 7.15081 6.54756C7.05704 6.45379 6.92987 6.40111 6.79726 6.40111C6.66465 6.40111 6.53747 6.45379 6.4437 6.54756C6.34994 6.64133 6.29726 6.76851 6.29726 6.90111V11.1606C6.29726 11.2932 6.34994 11.4204 6.4437 11.5142C6.53747 11.6079 6.66465 11.6606 6.79726 11.6606C6.92987 11.6606 7.05704 11.6079 7.15081 11.5142C7.24458 11.4204 7.29726 11.2932 7.29726 11.1606V11.1586ZM9.70426 11.1586V6.90111C9.70426 6.76851 9.65158 6.64133 9.55781 6.54756C9.46404 6.45379 9.33687 6.40111 9.20426 6.40111C9.07165 6.40111 8.94447 6.45379 8.8507 6.54756C8.75694 6.64133 8.70426 6.76851 8.70426 6.90111V11.1606C8.70426 11.2932 8.75694 11.4204 8.8507 11.5142C8.94447 11.6079 9.07165 11.6606 9.20426 11.6606C9.33687 11.6606 9.46404 11.6079 9.55781 11.5142C9.65158 11.4204 9.70426 11.2932 9.70426 11.1606V11.1586Z" fill="#1760E8"/>
</svg>
