<svg width="16" height="16" viewBox="0 0 16 16" fill="none" xmlns="http://www.w3.org/2000/svg">
<path d="M3.01822 10.5034L3 12.5626C3 12.672 3.03645 12.7995 3.12756 12.8724C3.21868 12.9453 3.32802 13 3.43736 13L5.49658 12.9818C5.60592 12.9818 5.71526 12.9271 5.80638 12.8542L12.877 5.7836C13.041 5.61959 13.041 5.32802 12.877 5.16401L10.836 3.12301C10.672 2.959 10.3804 2.959 10.2164 3.12301L8.79499 4.54442L3.14579 10.1936C3.05467 10.2847 3.01822 10.3941 3.01822 10.5034ZM11.9476 5.4738L11.1458 6.27563L9.72437 4.85421L10.5262 4.05239L11.9476 5.4738ZM3.89294 10.6857L9.10478 5.4738L10.5262 6.89522L5.31435 12.1071H3.89294V10.6857Z" fill="#1E1E1E"/>
</svg>
