<svg width="12" height="14" viewBox="0 0 12 14" fill="none" xmlns="http://www.w3.org/2000/svg">
<path fill-rule="evenodd" clip-rule="evenodd" d="M8.42703 5.19729C8.42703 6.98103 6.98103 8.42703 5.19729 8.42703C3.41355 8.42703 1.96754 6.98103 1.96754 5.19729C1.96754 3.41355 3.41355 1.96754 5.19729 1.96754C6.98103 1.96754 8.42703 3.41355 8.42703 5.19729ZM7.25346 9.97199C6.62284 10.2439 5.92766 10.3946 5.19729 10.3946C2.32691 10.3946 0 8.06767 0 5.19729C0 2.32691 2.32691 0 5.19729 0C8.06767 0 10.3946 2.32691 10.3946 5.19729C10.3946 6.62839 9.81616 7.92439 8.88037 8.86427L8.0963 7.77505L6.49945 8.92453L7.25346 9.97199ZM7.25346 9.97199C7.86555 9.70805 8.41681 9.32985 8.88037 8.86427L11.4253 12.3996C11.7427 12.8406 11.6425 13.4554 11.2016 13.7728C10.7606 14.0902 10.1458 13.9901 9.82841 13.5491L7.25346 9.97199Z" fill="#1E1E1E" fill-opacity="0.4"/>
<path d="M8.0963 7.77505L6.49945 8.92453L7.25346 9.97199C7.86555 9.70805 8.41681 9.32985 8.88037 8.86427L8.0963 7.77505Z" fill="#1E1E1E" fill-opacity="0.4"/>
</svg>
