<svg width="16" height="16" viewBox="0 0 16 16" fill="none" xmlns="http://www.w3.org/2000/svg">
<g clip-path="url(#clip0_921_16899)">
<path fill-rule="evenodd" clip-rule="evenodd" d="M8 11.5098C5.30285 11.5098 3.02952 10.1316 1.59622 8.00978C3.02952 5.88793 5.30285 4.50977 8 4.50977C10.6971 4.50977 12.9705 5.88793 14.4038 8.00978C12.9705 10.1316 10.6971 11.5098 8 11.5098ZM8 3.50977C4.80786 3.50977 2.15639 5.21615 0.576 7.74478C0.474666 7.90692 0.474667 8.11265 0.576001 8.27478C2.15639 10.8034 4.80786 12.5098 8 12.5098C11.1921 12.5098 13.8436 10.8034 15.424 8.27478C15.5253 8.11265 15.5253 7.90692 15.424 7.74478C13.8436 5.21615 11.1921 3.50977 8 3.50977ZM8 10.0098C9.10457 10.0098 10 9.11434 10 8.00977C10 6.9052 9.10457 6.00977 8 6.00977C6.89543 6.00977 6 6.9052 6 8.00977C6 9.11434 6.89543 10.0098 8 10.0098Z" fill="#1E1E1E" fill-opacity="0.4"/>
</g>
<defs>
<clipPath id="clip0_921_16899">
<rect width="15" height="15" fill="white" transform="translate(0.5 0.509766)"/>
</clipPath>
</defs>
</svg>
