<svg width="18" height="22" viewBox="0 0 18 22" fill="none" xmlns="http://www.w3.org/2000/svg">
<path fill-rule="evenodd" clip-rule="evenodd" d="M5.91793 8.85816C5.70704 9.06905 5.70704 9.41095 5.91793 9.62184C6.12882 9.83272 6.47072 9.83272 6.68161 9.62184L8.99977 7.30367L11.3179 9.62184C11.5288 9.83272 11.8707 9.83272 12.0816 9.62184C12.2925 9.41095 12.2925 9.06905 12.0816 8.85816L9.38161 6.15816C9.28033 6.05689 9.14298 6 8.99977 6C8.85655 6 8.7192 6.05689 8.61793 6.15816L5.91793 8.85816ZM12.0816 13.8218C12.2925 13.611 12.2925 13.269 12.0816 13.0582C11.8707 12.8473 11.5288 12.8473 11.3179 13.0582L8.99977 15.3763L6.68161 13.0582C6.47072 12.8473 6.12882 12.8473 5.91793 13.0582C5.70704 13.269 5.70704 13.611 5.91793 13.8218L8.61793 16.5219C8.82882 16.7327 9.17072 16.7327 9.38161 16.5219L12.0816 13.8218Z" fill="#1E1E1E" fill-opacity="0.6"/>
</svg>
