<svg width="18" height="18" viewBox="0 0 18 18" fill="none" xmlns="http://www.w3.org/2000/svg">
<path fill-rule="evenodd" clip-rule="evenodd" d="M5.91793 6.51819C5.70704 6.72908 5.70704 7.07099 5.91793 7.28187C6.12882 7.49275 6.47072 7.49275 6.68161 7.28187L8.99977 4.9637L11.3179 7.28187C11.5288 7.49275 11.8707 7.49275 12.0816 7.28187C12.2925 7.07099 12.2925 6.72908 12.0816 6.51819L9.38161 3.81819C9.28033 3.71693 9.14298 3.66003 8.99977 3.66003C8.85655 3.66003 8.7192 3.71693 8.61793 3.81819L5.91793 6.51819ZM12.0816 11.4819C12.2925 11.271 12.2925 10.9291 12.0816 10.7182C11.8707 10.5073 11.5288 10.5073 11.3179 10.7182L8.99977 13.0364L6.68161 10.7182C6.47072 10.5073 6.12882 10.5073 5.91793 10.7182C5.70704 10.9291 5.70704 11.271 5.91793 11.4819L8.61793 14.1819C8.82882 14.3927 9.17072 14.3927 9.38161 14.1819L12.0816 11.4819Z" fill="#1E1E1E" fill-opacity="0.6"/>
</svg>
