<svg width="21" height="20" viewBox="0 0 21 20" fill="none" xmlns="http://www.w3.org/2000/svg">
<path d="M6.33328 3.75002C5.88995 3.74989 5.45455 3.86766 5.07173 4.09125C4.6889 4.31484 4.37242 4.63621 4.15473 5.02241C3.93703 5.40862 3.82595 5.84577 3.83287 6.28905C3.83979 6.73233 3.96447 7.1658 4.19411 7.54502C3.62373 7.65523 3.10951 7.96058 2.73974 8.40863C2.36997 8.85669 2.16772 9.4195 2.16772 10.0004C2.16772 10.5814 2.36997 11.1442 2.73974 11.5922C3.10951 12.0403 3.62373 12.3456 4.19411 12.4559M6.33328 3.75002C6.33328 3.19749 6.55278 2.66758 6.94348 2.27688C7.33418 1.88618 7.86408 1.66669 8.41662 1.66669C8.96915 1.66669 9.49905 1.88618 9.88975 2.27688C10.2805 2.66758 10.4999 3.19749 10.4999 3.75002V16.25C10.4999 16.8026 10.2805 17.3325 9.88975 17.7232C9.49905 18.1139 8.96915 18.3334 8.41662 18.3334C7.86408 18.3334 7.33418 18.1139 6.94348 17.7232C6.55278 17.3325 6.33328 16.8026 6.33328 16.25C5.89007 16.2501 5.45482 16.1323 5.07212 15.9087C4.68941 15.6852 4.37302 15.3639 4.15535 14.9778C3.93768 14.5918 3.82655 14.1548 3.83337 13.7116C3.84018 13.2684 3.96468 12.8351 4.19411 12.4559M6.33328 3.75002C6.33328 4.43169 6.66078 5.03669 7.16662 5.41669M4.19411 12.4559C4.49318 11.9607 4.95467 11.5847 5.49995 11.3917M16.5416 3.95835L14.6666 5.83335H12.9999M16.5416 16.0417L14.6666 14.1667H12.9999M16.5416 10H12.9999M15.9166 3.95835C15.9166 4.12411 15.9825 4.28309 16.0997 4.4003C16.2169 4.51751 16.3759 4.58335 16.5416 4.58335C16.7074 4.58335 16.8663 4.51751 16.9836 4.4003C17.1008 4.28309 17.1666 4.12411 17.1666 3.95835C17.1666 3.79259 17.1008 3.63362 16.9836 3.51641C16.8663 3.3992 16.7074 3.33335 16.5416 3.33335C16.3759 3.33335 16.2169 3.3992 16.0997 3.51641C15.9825 3.63362 15.9166 3.79259 15.9166 3.95835ZM15.9166 16.0417C15.9166 15.8759 15.9825 15.717 16.0997 15.5997C16.2169 15.4825 16.3759 15.4167 16.5416 15.4167C16.7074 15.4167 16.8663 15.4825 16.9836 15.5997C17.1008 15.717 17.1666 15.8759 17.1666 16.0417C17.1666 16.2074 17.1008 16.3664 16.9836 16.4836C16.8663 16.6008 16.7074 16.6667 16.5416 16.6667C16.3759 16.6667 16.2169 16.6008 16.0997 16.4836C15.9825 16.3664 15.9166 16.2074 15.9166 16.0417ZM15.9166 10C15.9166 10.1658 15.9825 10.3248 16.0997 10.442C16.2169 10.5592 16.3759 10.625 16.5416 10.625C16.7074 10.625 16.8663 10.5592 16.9836 10.442C17.1008 10.3248 17.1666 10.1658 17.1666 10C17.1666 9.83426 17.1008 9.67529 16.9836 9.55808C16.8663 9.44087 16.7074 9.37502 16.5416 9.37502C16.3759 9.37502 16.2169 9.44087 16.0997 9.55808C15.9825 9.67529 15.9166 9.83426 15.9166 10Z" stroke="#747475" stroke-width="1.3" stroke-linecap="round" stroke-linejoin="round"/>
</svg>
