<svg width="30" height="33" viewBox="0 0 30 33" fill="none" xmlns="http://www.w3.org/2000/svg">
<path d="M8.74794 4.875C7.92333 4.87476 7.1135 5.09381 6.40145 5.50969C5.68939 5.92557 5.10074 6.52331 4.69582 7.24165C4.29091 7.96 4.0843 8.77309 4.09717 9.5976C4.11005 10.4221 4.34194 11.2283 4.76909 11.9337C3.70817 12.1387 2.75172 12.7066 2.06395 13.54C1.37618 14.3734 1 15.4202 1 16.5008C1 17.5813 1.37618 18.6281 2.06395 19.4615C2.75172 20.2949 3.70817 20.8629 4.76909 21.0678M8.74794 4.875C8.74794 3.84729 9.15619 2.86166 9.8829 2.13496C10.6096 1.40826 11.5952 1 12.6229 1C13.6507 1 14.6363 1.40826 15.363 2.13496C16.0897 2.86166 16.4979 3.84729 16.4979 4.875V28.125C16.4979 29.1527 16.0897 30.1383 15.363 30.865C14.6363 31.5917 13.6507 32 12.6229 32C11.5952 32 10.6096 31.5917 9.8829 30.865C9.15619 30.1383 8.74794 29.1527 8.74794 28.125C7.92357 28.1251 7.114 27.906 6.40217 27.4902C5.69034 27.0744 5.10184 26.4768 4.69698 25.7587C4.29211 25.0406 4.08542 24.2278 4.09809 23.4035C4.11076 22.5793 4.34234 21.7732 4.76909 21.0678M8.74794 4.875C8.74794 6.1429 9.35709 7.2682 10.2979 7.975M4.76909 21.0678C5.32535 20.147 6.18372 19.4474 7.19794 19.0885M27.7354 5.2625L24.2479 8.75H21.1479M27.7354 27.7375L24.2479 24.25H21.1479M27.7354 16.5H21.1479M26.5729 5.2625C26.5729 5.57081 26.6954 5.8665 26.9134 6.08451C27.1314 6.30252 27.4271 6.425 27.7354 6.425C28.0438 6.425 28.3394 6.30252 28.5574 6.08451C28.7755 5.8665 28.8979 5.57081 28.8979 5.2625C28.8979 4.95419 28.7755 4.6585 28.5574 4.44049C28.3394 4.22248 28.0438 4.1 27.7354 4.1C27.4271 4.1 27.1314 4.22248 26.9134 4.44049C26.6954 4.6585 26.5729 4.95419 26.5729 5.2625ZM26.5729 27.7375C26.5729 27.4292 26.6954 27.1335 26.9134 26.9155C27.1314 26.6975 27.4271 26.575 27.7354 26.575C28.0438 26.575 28.3394 26.6975 28.5574 26.9155C28.7755 27.1335 28.8979 27.4292 28.8979 27.7375C28.8979 28.0458 28.7755 28.3415 28.5574 28.5595C28.3394 28.7775 28.0438 28.9 27.7354 28.9C27.4271 28.9 27.1314 28.7775 26.9134 28.5595C26.6954 28.3415 26.5729 28.0458 26.5729 27.7375ZM26.5729 16.5C26.5729 16.8083 26.6954 17.104 26.9134 17.322C27.1314 17.54 27.4271 17.6625 27.7354 17.6625C28.0438 17.6625 28.3394 17.54 28.5574 17.322C28.7755 17.104 28.8979 16.8083 28.8979 16.5C28.8979 16.1917 28.7755 15.896 28.5574 15.678C28.3394 15.46 28.0438 15.3375 27.7354 15.3375C27.4271 15.3375 27.1314 15.46 26.9134 15.678C26.6954 15.896 26.5729 16.1917 26.5729 16.5Z" stroke="#1760E8" stroke-width="1.7" stroke-linecap="round" stroke-linejoin="round"/>
</svg>
