<svg width="21" height="20" viewBox="0 0 21 20" fill="none" xmlns="http://www.w3.org/2000/svg">
<path d="M3.80371 14.0179V11.3393C3.80371 10.9841 3.94482 10.6434 4.19597 10.3923C4.44714 10.1411 4.78779 10 5.143 10H15.8573C16.2125 10 16.5532 10.1411 16.8043 10.3923C17.0554 10.6434 17.1966 10.9841 17.1966 11.3393V14.0179" stroke="#1760E8" stroke-width="1.25" stroke-linecap="round" stroke-linejoin="round"/>
<path d="M10.5 5.98242V14.0181" stroke="#1760E8" stroke-width="1.25" stroke-linecap="round" stroke-linejoin="round"/>
<path d="M8.49121 3.30413V4.64341C8.49121 5.38308 9.09084 5.9827 9.8305 5.9827H11.1698C11.9094 5.9827 12.5091 5.38308 12.5091 4.64341V3.30413C12.5091 2.56447 11.9094 1.96484 11.1698 1.96484H9.8305C9.09084 1.96484 8.49121 2.56447 8.49121 3.30413Z" stroke="#1760E8" stroke-width="1.25" stroke-linecap="round" stroke-linejoin="round"/>
<path d="M8.49121 15.3569V16.6961C8.49121 17.4358 9.09084 18.0354 9.8305 18.0354H11.1698C11.9094 18.0354 12.5091 17.4358 12.5091 16.6961V15.3569C12.5091 14.6172 11.9094 14.0176 11.1698 14.0176H9.8305C9.09084 14.0176 8.49121 14.6172 8.49121 15.3569Z" stroke="#1760E8" stroke-width="1.25" stroke-linecap="round" stroke-linejoin="round"/>
<path d="M1.79492 15.3569V16.6961C1.79492 17.4358 2.39454 18.0354 3.13421 18.0354H4.47349C5.21315 18.0354 5.81278 17.4358 5.81278 16.6961V15.3569C5.81278 14.6172 5.21315 14.0176 4.47349 14.0176H3.13421C2.39454 14.0176 1.79492 14.6172 1.79492 15.3569Z" stroke="#1760E8" stroke-width="1.25" stroke-linecap="round" stroke-linejoin="round"/>
<path d="M15.1875 15.3588V16.6981C15.1875 17.4378 15.7871 18.0374 16.5268 18.0374H17.8661C18.6058 18.0374 19.2054 17.4378 19.2054 16.6981V15.3588C19.2054 14.6191 18.6058 14.0195 17.8661 14.0195H16.5268C15.7871 14.0195 15.1875 14.6191 15.1875 15.3588Z" stroke="#1760E8" stroke-width="1.25" stroke-linecap="round" stroke-linejoin="round"/>
</svg>
