<svg width="21" height="20" viewBox="0 0 21 20" fill="none" xmlns="http://www.w3.org/2000/svg">
<path d="M5.16699 5.83333C5.16699 6.71739 5.51818 7.56523 6.1433 8.19036C6.76842 8.81548 7.61627 9.16667 8.50033 9.16667C9.38438 9.16667 10.2322 8.81548 10.8573 8.19036C11.4825 7.56523 11.8337 6.71739 11.8337 5.83333C11.8337 4.94928 11.4825 4.10143 10.8573 3.47631C10.2322 2.85119 9.38438 2.5 8.50033 2.5C7.61627 2.5 6.76842 2.85119 6.1433 3.47631C5.51818 4.10143 5.16699 4.94928 5.16699 5.83333Z" stroke="#1760E8" stroke-width="1.25" stroke-linecap="round" stroke-linejoin="round"/>
<path d="M13.9956 8.96654C14.8673 8.81963 15.645 8.33243 16.1576 7.61211C16.6701 6.8918 16.8755 5.99738 16.7286 5.12562C16.5817 4.25386 16.0945 3.47616 15.3742 2.96362C14.6539 2.45107 13.7595 2.24566 12.8877 2.39258" stroke="#1760E8" stroke-width="1.25" stroke-linecap="round" stroke-linejoin="round"/>
<path d="M3.5 17.5V15.8333C3.5 14.9493 3.85119 14.1014 4.47631 13.4763C5.10143 12.8512 5.94928 12.5 6.83333 12.5H10.1667C11.0507 12.5 11.8986 12.8512 12.5237 13.4763C13.1488 14.1014 13.5 14.9493 13.5 15.8333V17.5" stroke="#1760E8" stroke-width="1.25" stroke-linecap="round" stroke-linejoin="round"/>
<path d="M14 12.5H15.1666C16.0506 12.5 16.8985 12.8512 17.5236 13.4763C18.1487 14.1014 18.4999 14.9493 18.4999 15.8333V17.5" stroke="#1760E8" stroke-width="1.25" stroke-linecap="round" stroke-linejoin="round"/>
</svg>
