<svg width="21" height="20" viewBox="0 0 21 20" fill="none" xmlns="http://www.w3.org/2000/svg">
<path d="M1.79492 10.1068H4.72796C4.85145 10.1054 4.97235 10.0711 5.07826 10.0076C5.18416 9.94404 5.27127 9.85348 5.33064 9.74517L7.74135 4.92375C7.80076 4.8037 7.89549 4.70472 8.0128 4.64008C8.1301 4.57544 8.26438 4.54824 8.3976 4.56214C8.53028 4.57111 8.65693 4.621 8.76006 4.70496C8.86322 4.78891 8.93777 4.90279 8.97349 5.03089L11.9601 14.9684C11.9993 15.1033 12.0799 15.2223 12.1904 15.3088C12.301 15.3954 12.4359 15.4449 12.5762 15.4505C12.7076 15.4461 12.8349 15.4033 12.942 15.327C13.0492 15.2507 13.1316 15.1446 13.1789 15.022L15.0137 10.5354C15.0642 10.4095 15.1511 10.3015 15.2632 10.2252C15.3753 10.1489 15.5075 10.1077 15.6431 10.1068H19.2056" stroke="#1760E8" stroke-width="1.25" stroke-linecap="round" stroke-linejoin="round"/>
</svg>
