<svg width="20" height="20" viewBox="0 0 20 20" fill="none" xmlns="http://www.w3.org/2000/svg">
<g clip-path="url(#clip0_1535_2876)">
<path d="M10.0003 18.7056C14.8082 18.7056 18.7056 14.8082 18.7056 10.0003C18.7056 5.19244 14.8082 1.29492 10.0003 1.29492C5.19244 1.29492 1.29492 5.19244 1.29492 10.0003C1.29492 14.8082 5.19244 18.7056 10.0003 18.7056Z" stroke="#1E1E1E" stroke-opacity="0.6" stroke-width="1.25" stroke-linecap="round" stroke-linejoin="round"/>
<path d="M7.65625 7.656C7.65625 7.19245 7.79383 6.73931 8.05161 6.35388C8.30937 5.96846 8.67575 5.66806 9.10441 5.49066C9.53306 5.31327 10.0047 5.26686 10.4598 5.35729C10.9149 5.44772 11.3328 5.67094 11.6609 5.99873C11.989 6.3265 12.2124 6.74412 12.3029 7.19875C12.3935 7.6534 12.347 8.12464 12.1694 8.55291C11.9919 8.98117 11.6912 9.34721 11.3054 9.60474C10.9197 9.86227 10.4661 9.99974 10.0021 9.99974V11.5622" stroke="#1E1E1E" stroke-opacity="0.6" stroke-width="1.25" stroke-linecap="round" stroke-linejoin="round"/>
<path d="M9.99986 14.6325C9.81495 14.6325 9.66504 14.4827 9.66504 14.2977C9.66504 14.1128 9.81495 13.9629 9.99986 13.9629" stroke="#1E1E1E" stroke-opacity="0.6" stroke-width="1.25" stroke-linecap="round" stroke-linejoin="round"/>
<path d="M10 14.6325C10.1849 14.6325 10.3348 14.4827 10.3348 14.2977C10.3348 14.1128 10.1849 13.9629 10 13.9629" stroke="#1E1E1E" stroke-opacity="0.6" stroke-width="1.25" stroke-linecap="round" stroke-linejoin="round"/>
</g>
<defs>
<clipPath id="clip0_1535_2876">
<rect width="20" height="20" fill="white"/>
</clipPath>
</defs>
</svg>
