<svg width="21" height="20" viewBox="0 0 21 20" fill="none" xmlns="http://www.w3.org/2000/svg">
<path d="M12.1667 6.66536V4.9987C12.1667 4.55667 11.9911 4.13275 11.6785 3.82019C11.3659 3.50763 10.942 3.33203 10.5 3.33203H4.66667C4.22464 3.33203 3.80072 3.50763 3.48816 3.82019C3.17559 4.13275 3 4.55667 3 4.9987V14.9987C3 15.4407 3.17559 15.8646 3.48816 16.1772C3.80072 16.4898 4.22464 16.6654 4.66667 16.6654H10.5C10.942 16.6654 11.3659 16.4898 11.6785 16.1772C11.9911 15.8646 12.1667 15.4407 12.1667 14.9987V13.332" stroke="#1760E8" stroke-width="1.25" stroke-linecap="round" stroke-linejoin="round"/>
<path d="M8 10H18L15.5 7.5" stroke="#1760E8" stroke-width="1.25" stroke-linecap="round" stroke-linejoin="round"/>
<path d="M15.5 12.5L18 10" stroke="#1760E8" stroke-width="1.25" stroke-linecap="round" stroke-linejoin="round"/>
</svg>
