<svg width="21" height="20" viewBox="0 0 21 20" fill="none" xmlns="http://www.w3.org/2000/svg">
<path d="M2.52568 8.41211H5.67472V16.7962H2.52568C2.34948 16.7962 2.1805 16.7263 2.05591 16.6016C1.93132 16.4771 1.86133 16.3081 1.86133 16.1319V9.07646C1.86133 8.90027 1.93132 8.73129 2.05591 8.60669C2.1805 8.48211 2.34948 8.41211 2.52568 8.41211Z" stroke="#1760E8" stroke-width="1.25" stroke-linecap="round" stroke-linejoin="round"/>
<path d="M5.6748 8.41065L9.04971 3.0161C9.18051 2.80289 9.3643 2.62717 9.58318 2.50609C9.80206 2.385 10.0486 2.32269 10.2987 2.32518C10.4957 2.31807 10.6921 2.35052 10.8763 2.42062C11.0606 2.49071 11.2289 2.59703 11.3714 2.73329C11.5138 2.86955 11.6275 3.03296 11.7057 3.21392C11.7839 3.39485 11.8251 3.58964 11.8267 3.78675V7.65329H17.6598C17.8752 7.66028 18.0868 7.7128 18.2806 7.80744C18.4744 7.90206 18.646 8.03662 18.7841 8.20229C18.9222 8.36796 19.0235 8.56096 19.0817 8.76863C19.1398 8.9763 19.1533 9.19392 19.1213 9.40717L18.0583 16.2633C18.0131 16.6297 17.8353 16.967 17.5589 17.2117C17.2825 17.4563 16.9261 17.5916 16.5568 17.592H7.84059C7.42567 17.5936 7.01613 17.4981 6.64476 17.3129L5.68809 16.8347" stroke="#1760E8" stroke-width="1.25" stroke-linecap="round" stroke-linejoin="round"/>
<path d="M5.6748 8.41016V16.7943" stroke="#1760E8" stroke-width="1.25" stroke-linecap="round" stroke-linejoin="round"/>
</svg>
