<svg width="21" height="20" viewBox="0 0 21 20" fill="none" xmlns="http://www.w3.org/2000/svg">
<path d="M5.19434 7.58594V13.0778" stroke="#1E1E1E" stroke-opacity="0.6" stroke-width="1.25" stroke-linecap="round" stroke-linejoin="round"/>
<path d="M10.5 7.58594V13.0778" stroke="#1E1E1E" stroke-opacity="0.6" stroke-width="1.25" stroke-linecap="round" stroke-linejoin="round"/>
<path d="M7.84766 8.76562V11.8962" stroke="#1E1E1E" stroke-opacity="0.6" stroke-width="1.25" stroke-linecap="round" stroke-linejoin="round"/>
<path d="M15.8066 7.58594V13.0778" stroke="#1E1E1E" stroke-opacity="0.6" stroke-width="1.25" stroke-linecap="round" stroke-linejoin="round"/>
<path d="M13.1533 8.76562V11.8962" stroke="#1E1E1E" stroke-opacity="0.6" stroke-width="1.25" stroke-linecap="round" stroke-linejoin="round"/>
<path d="M19.1231 14.6426V17.2956C19.1231 17.6474 18.9833 17.9849 18.7346 18.2336C18.4859 18.4824 18.1484 18.6222 17.7966 18.6222H15.1436" stroke="#1E1E1E" stroke-opacity="0.6" stroke-width="1.25" stroke-linecap="round" stroke-linejoin="round"/>
<path d="M15.1436 1.37695H17.7966C18.1484 1.37695 18.4859 1.51671 18.7346 1.76548C18.9833 2.01426 19.1231 2.35166 19.1231 2.70348V5.35655" stroke="#1E1E1E" stroke-opacity="0.6" stroke-width="1.25" stroke-linecap="round" stroke-linejoin="round"/>
<path d="M1.87793 5.35655V2.70348C1.87793 2.35166 2.01769 2.01426 2.26646 1.76548C2.51523 1.51671 2.85264 1.37695 3.20446 1.37695H5.85752" stroke="#1E1E1E" stroke-opacity="0.6" stroke-width="1.25" stroke-linecap="round" stroke-linejoin="round"/>
<path d="M5.85752 18.6222H3.20446C2.85264 18.6222 2.51523 18.4824 2.26646 18.2336C2.01769 17.9849 1.87793 17.6474 1.87793 17.2956V14.6426" stroke="#1E1E1E" stroke-opacity="0.6" stroke-width="1.25" stroke-linecap="round" stroke-linejoin="round"/>
</svg>
